<?xml version="1.0" encoding="utf-8"?>
<!-- Generator: Adobe Illustrator 23.0.0, SVG Export Plug-In . SVG Version: 6.00 Build 0)  -->
<svg version="1.1" id="Layer_1" xmlns="http://www.w3.org/2000/svg" xmlns:xlink="http://www.w3.org/1999/xlink" x="0px" y="0px"
	 viewBox="0 0 631 633" style="enable-background:new 0 0 631 633;" xml:space="preserve">
<style type="text/css">
	.st0{opacity:0.7;fill:#A091F5;enable-background:new    ;}
</style>
<title>Asset 1</title>
<path class="st0" d="M558.2,427.3c-21.8-23.4-62.5-58.6-62.5-173.9c0-87.6-61.4-157.7-144.1-174.9V55.1c0-19.9-16.1-36.1-36.1-36.1
	s-36.1,16.1-36.1,36.1v23.4c-82.7,17.2-144.1,87.3-144.1,174.9c0,115.3-40.8,150.4-62.5,173.9c-6.8,7.2-9.7,15.9-9.7,24.5
	c0.1,18.5,14.7,36.1,36.2,36.1h432.5c21.5,0,36.1-17.6,36.2-36.1C567.9,443.2,565,434.5,558.2,427.3L558.2,427.3z M139.1,433.7
	c23.9-31.6,50-83.7,50.1-179.6c0-0.2-0.1-0.5-0.1-0.7c0-69.8,56.5-126.2,126.2-126.2s126.2,56.5,126.2,126.2c0,0.2-0.1,0.5-0.1,0.7
	c0.2,95.9,26.5,148.1,50.4,179.6H139.1z M315.5,596c39.8,0,72.1-32.2,72.1-72.1H243.4C243.4,563.8,275.7,596,315.5,596z"/>
</svg>
