<?xml version="1.0" encoding="utf-8"?>
<!-- Generator: Adobe Illustrator 23.0.0, SVG Export Plug-In . SVG Version: 6.00 Build 0)  -->
<svg version="1.1" xmlns="http://www.w3.org/2000/svg" xmlns:xlink="http://www.w3.org/1999/xlink" x="0px" y="0px"
	 viewBox="0 0 631 633" style="enable-background:new 0 0 631 633;" xml:space="preserve">
<style type="text/css">
	.st0{fill:#FFFFFF;}
	.st1{fill:url(#SVGID_1_);}
</style>
<g id="Layer_2">
	<path class="st0" d="M527,413.9c-10.3-6.8-21-13.2-31.1-20.3c-0.7-1.4-1.4-2.7-2.1-4.1c-0.8-8.7-1.2-17.4-2-26.1
		c-1.4-14.4-3.3-28.7-5.4-42.9c-3.3-23-7.3-45.9-11.5-68.7c-4.1-22.4-8.3-43.8-17.8-64.7c-10.1-22.3-28.6-39.1-49.9-50.6
		c-8.4-4.5-17.2-8.4-25.5-12.9c-8.6-4.7-16.3-10.7-24.8-15.4c-13.4-7.3-28.8-12-44.2-10.5c-14.9,1.5-28.8,5.6-41.8,13.3
		c-20.2,3.7-41.5,7.7-55.4,23.9c-15.8,18.4-22.1,43.9-27,67.1c-3.5,16.7-6.6,33.5-9.5,50.3c-13.8,37.1-26.3,74.7-38.2,112.4
		c-4,12.6,0.4,26.1,9.2,35.2c-1.9,2.1-4,4.1-6.1,6.1c-2.4,1.6-5,3.1-7.6,4.4c-0.2,0.1-0.4,0.2-0.6,0.2
		c-14.9,5.1-27.9,18.9-27.2,35.7c0.3,6.6,2,12.9,5.1,18.7c3.7,7.1,13.9,15.8,22.1,17c26.6,3.9,53,3.8,79.7,4
		c24.6,0.2,49.3,0.3,73.9,0.5c48.6,0.3,97.2,0.6,145.8,0.9c14,0.1,28,0.2,42,0.3c17.4,0.1,34.1-1.2,49.7-9.7
		c11.3-6.2,18.3-19.2,18.3-31.9C545.3,432.3,538,421.1,527,413.9z M343.5,330.2c-8.5-1.9-17.2-1.1-24.8,2.2
		c0.4-5.3,0.9-10.6,1.5-15.9c2.2-14.9,5.1-29.8,8.3-44.5c0.8-3.7,1.6-7.5,2.3-11.3c1.7,6.3,3.4,12.5,5.1,18.7
		c4.7,17.2,8.8,34.5,11.7,52.1C346.4,331,345,330.6,343.5,330.2z"/>
</g>
<g id="Layer_1">
	
		<linearGradient id="SVGID_1_" gradientUnits="userSpaceOnUse" x1="46.6429" y1="317.1884" x2="600" y2="317.1884" gradientTransform="matrix(1 0 0 -1 0 634)">
		<stop  offset="0" style="stop-color:#A587F8"/>
		<stop  offset="3.000000e-02" style="stop-color:#9E7EF9"/>
		<stop  offset="0.12" style="stop-color:#906CFB"/>
		<stop  offset="0.17" style="stop-color:#8B65FC"/>
		<stop  offset="0.33" style="stop-color:#8967FC"/>
		<stop  offset="0.7" style="stop-color:#6959FE"/>
		<stop  offset="0.93" style="stop-color:#5A52FF"/>
		<stop  offset="1" style="stop-color:#6D50FF"/>
	</linearGradient>
	<path class="st1" d="M589.3,448.1c-23.9-25.6-68.5-64.2-68.5-190.6c0-96-67.3-172.8-157.9-191.7V40.2c0-21.8-17.6-39.6-39.6-39.6
		c-21.9,0-39.6,17.6-39.6,39.6v25.6c-90.6,18.9-157.9,95.7-157.9,191.7c0,126.4-44.7,164.8-68.5,190.6c-7.5,7.9-10.6,17.4-10.6,26.9
		c0.1,20.3,16.1,39.6,39.7,39.6h474c23.6,0,39.6-19.3,39.7-39.6C599.9,465.5,596.7,456,589.3,448.1L589.3,448.1z M129.9,455.1
		c26.2-34.6,54.8-91.7,54.9-196.8c0-0.2-0.1-0.5-0.1-0.8c0-76.5,61.9-138.3,138.3-138.3s138.3,61.9,138.3,138.3
		c0,0.2-0.1,0.5-0.1,0.8c0.2,105.1,29,162.3,55.2,196.8H129.9z M323.3,633c43.6,0,79-35.3,79-79h-158
		C244.2,597.7,279.6,633,323.3,633z"/>
</g>
</svg>
