<?xml version="1.0" encoding="utf-8"?>
<!-- Generator: Adobe Illustrator 23.0.0, SVG Export Plug-In . SVG Version: 6.00 Build 0)  -->
<svg version="1.1" id="Layer_1" xmlns="http://www.w3.org/2000/svg" xmlns:xlink="http://www.w3.org/1999/xlink" x="0px" y="0px"
	 viewBox="0 0 631 633" style="enable-background:new 0 0 631 633;" xml:space="preserve">
<style type="text/css">
	.st0{fill:#FFFFFF;}
	.st1{fill:none;stroke:url(#SVGID_1_);stroke-width:55;stroke-miterlimit:10;}
	.st2{fill:none;stroke:url(#SVGID_2_);stroke-width:55;stroke-miterlimit:10;}
	.st3{fill:none;stroke:url(#SVGID_3_);stroke-width:55;stroke-miterlimit:10;}
	.st4{fill:url(#SVGID_4_);}
</style>
<title>Asset 2</title>
<g>
	<g id="Layer_1-2">
		<path class="st0" d="M222.9,27.5h340.7c22.1,0,40,17.9,40,40v340.7c0,22.1-17.9,40-40,40H222.9c-22.1,0-40-17.9-40-40V67.5
			C182.9,45.4,200.8,27.5,222.9,27.5z"/>
		
			<linearGradient id="SVGID_1_" gradientUnits="userSpaceOnUse" x1="155.37" y1="396.165" x2="631.04" y2="396.165" gradientTransform="matrix(1 0 0 -1 0 634)">
			<stop  offset="0" style="stop-color:#A587F8"/>
			<stop  offset="3.000000e-02" style="stop-color:#9E7EF9"/>
			<stop  offset="0.12" style="stop-color:#906CFB"/>
			<stop  offset="0.17" style="stop-color:#8B65FC"/>
			<stop  offset="0.33" style="stop-color:#8967FC"/>
			<stop  offset="0.7" style="stop-color:#6959FE"/>
			<stop  offset="0.93" style="stop-color:#5A52FF"/>
			<stop  offset="1" style="stop-color:#6D50FF"/>
		</linearGradient>
		<path class="st1" d="M222.9,27.5h340.7c22.1,0,40,17.9,40,40v340.7c0,22.1-17.9,40-40,40H222.9c-22.1,0-40-17.9-40-40V67.5
			C182.9,45.4,200.8,27.5,222.9,27.5z"/>
		<path class="st0" d="M146.2,106.2h340.7c22.1,0,40,17.9,40,40v340.7c0,22.1-17.9,40-40,40H146.2c-22.1,0-40-17.9-40-40V146.2
			C106.2,124.1,124.1,106.2,146.2,106.2z"/>
		
			<linearGradient id="SVGID_2_" gradientUnits="userSpaceOnUse" x1="78.66" y1="317.505" x2="554.33" y2="317.505" gradientTransform="matrix(1 0 0 -1 0 634)">
			<stop  offset="0" style="stop-color:#A587F8"/>
			<stop  offset="3.000000e-02" style="stop-color:#9E7EF9"/>
			<stop  offset="0.12" style="stop-color:#906CFB"/>
			<stop  offset="0.17" style="stop-color:#8B65FC"/>
			<stop  offset="0.33" style="stop-color:#8967FC"/>
			<stop  offset="0.7" style="stop-color:#6959FE"/>
			<stop  offset="0.93" style="stop-color:#5A52FF"/>
			<stop  offset="1" style="stop-color:#6D50FF"/>
		</linearGradient>
		<path class="st2" d="M146.2,106.2h340.7c22.1,0,40,17.9,40,40v340.7c0,22.1-17.9,40-40,40H146.2c-22.1,0-40-17.9-40-40V146.2
			C106.2,124.1,124.1,106.2,146.2,106.2z"/>
		<path class="st0" d="M67.5,184.8h340.7c22.1,0,40,17.9,40,40v340.7c0,22.1-17.9,40-40,40H67.5c-22.1,0-40-17.9-40-40V224.8
			C27.5,202.7,45.4,184.8,67.5,184.8z"/>
		
			<linearGradient id="SVGID_3_" gradientUnits="userSpaceOnUse" x1="0" y1="238.835" x2="475.67" y2="238.835" gradientTransform="matrix(1 0 0 -1 0 634)">
			<stop  offset="0" style="stop-color:#A587F8"/>
			<stop  offset="3.000000e-02" style="stop-color:#9E7EF9"/>
			<stop  offset="0.12" style="stop-color:#906CFB"/>
			<stop  offset="0.17" style="stop-color:#8B65FC"/>
			<stop  offset="0.33" style="stop-color:#8967FC"/>
			<stop  offset="0.7" style="stop-color:#6959FE"/>
			<stop  offset="0.93" style="stop-color:#5A52FF"/>
			<stop  offset="1" style="stop-color:#6D50FF"/>
		</linearGradient>
		<path class="st3" d="M67.5,184.8h340.7c22.1,0,40,17.9,40,40v340.7c0,22.1-17.9,40-40,40H67.5c-22.1,0-40-17.9-40-40V224.8
			C27.5,202.7,45.4,184.8,67.5,184.8z"/>
	</g>
</g>
<linearGradient id="SVGID_4_" gradientUnits="userSpaceOnUse" x1="147.309" y1="395.165" x2="327.551" y2="395.165">
	<stop  offset="0" style="stop-color:#A587F8"/>
	<stop  offset="3.000000e-02" style="stop-color:#9E7EF9"/>
	<stop  offset="0.12" style="stop-color:#906CFB"/>
	<stop  offset="0.17" style="stop-color:#8B65FC"/>
	<stop  offset="0.33" style="stop-color:#8967FC"/>
	<stop  offset="0.7" style="stop-color:#6959FE"/>
	<stop  offset="0.93" style="stop-color:#5A52FF"/>
	<stop  offset="1" style="stop-color:#6D50FF"/>
</linearGradient>
<path class="st4" d="M196.5,496.7c0,3.2,1,6.4,2.7,9.1l8.8,13.2c3,4.6,8.2,7.3,13.6,7.3h31.6c5.5,0,10.6-2.7,13.6-7.3l8.8-13.2
	c1.8-2.7,2.7-5.8,2.7-9.1l0-19.6h-81.9C196.5,477.1,196.5,496.7,196.5,496.7z M147.3,354.2c0,22.7,8.4,43.4,22.3,59.3
	c8.5,9.7,21.7,29.8,26.7,46.8c0,0.1,0,0.3,0.1,0.4h82.1c0-0.1,0-0.3,0.1-0.4c5-17,18.3-37.2,26.7-46.8
	c13.9-15.8,22.3-36.6,22.3-59.3c0-49.9-40.5-90.3-90.4-90.1C184.9,264.2,147.3,306.6,147.3,354.2z M237.4,313.2
	c-22.6,0-41,18.4-41,41c0,4.5-3.7,8.2-8.2,8.2s-8.2-3.7-8.2-8.2c0-31.6,25.7-57.3,57.3-57.3c4.5,0,8.2,3.7,8.2,8.2
	S242,313.2,237.4,313.2z"/>
</svg>
