<?xml version="1.0" encoding="utf-8"?>
<!-- Generator: Adobe Illustrator 23.0.0, SVG Export Plug-In . SVG Version: 6.00 Build 0)  -->
<svg version="1.1" id="Layer_1" xmlns="http://www.w3.org/2000/svg" xmlns:xlink="http://www.w3.org/1999/xlink" x="0px" y="0px"
	viewBox="0 0 631 633" style="enable-background:new 0 0 631 633;" xml:space="preserve">
<style type="text/css">
	.st0{opacity:0.6;}
	.st1{fill:none;stroke:#A091F5;stroke-width:55;stroke-miterlimit:10;}
	.st2{fill:#A091F5;}
	.st3{clip-path:url(#SVGID_2_);}
	.st4{clip-path:url(#SVGID_4_);}
</style>
<title>Asset 1</title>
<g class="st0">
	<g id="Layer_1-2_1_">
		<path class="st1" d="M94.1,198.7h303.6c19.7,0,35.6,15.9,35.6,35.6v303.6c0,19.7-15.9,35.6-35.6,35.6H94.1
			c-19.7,0-35.6-15.9-35.6-35.6V234.3C58.5,214.6,74.4,198.7,94.1,198.7z"/>
		<path class="st2" d="M245.5,305.3c-24.2,0-43.9,19.7-43.9,43.9c-0.2,4,3,7.5,7,7.6c4,0.2,7.5-3,7.6-7c0,0,0,0,0-0.1
			c0-0.2,0-0.4,0-0.5c0-16.1,13.1-29.2,29.3-29.3c4,0.2,7.5-3,7.6-7s-3-7.5-7-7.6c0,0,0,0-0.1,0H245.5L245.5,305.3z M209,478.8
			c0,1.4,0.4,2.9,1.2,4l11.2,16.8c1.3,2,3.7,3.3,6.1,3.3h36.1c2.5,0,4.7-1.2,6.1-3.3l11.2-16.8c0.8-1.2,1.2-2.6,1.2-4V459H209V478.8
			z M245.5,268.7c-46.8,0-80.5,38-80.5,80.5c0,19.5,7,38.3,20,53c7.7,8.7,19.5,26.9,24,42.1h22v-0.1c0-2.1-0.4-4.4-1-6.4
			c-6-18.4-15.7-35.6-28.4-50.2c-9.4-10.7-14.4-24.3-14.4-38.5c-0.1-33.7,27.3-58.5,58.5-58.5c32.3,0,58.5,26.2,58.5,58.5
			c0,14.2-5.2,27.9-14.5,38.6c-12.7,14.6-22.5,31.6-28.4,50.1c-0.7,2.1-1,4.3-1,6.5l0,0h22c4.5-15.2,16.4-33.5,24-42.1
			c29.3-33.4,25.9-84.3-7.6-113.6C283.9,275.8,265,268.7,245.5,268.7L245.5,268.7z"/>
		<g>
			<g>
				<g>
					<g>
						<defs>
							<polygon id="SVGID_1_" points="526.7,34 146.3,34 146.3,103.5 526.7,103.5 526.7,499.1 596.2,499.1 596.2,103.5 596.2,34 
															"/>
						</defs>
						<clipPath id="SVGID_2_">
							<use xlink:href="#SVGID_1_"  style="overflow:visible;"/>
						</clipPath>
						<g class="st3">
							<path class="st1" d="M232.6,58.5h303.6c19.7,0,35.6,15.9,35.6,35.6v303.6c0,19.7-15.9,35.6-35.6,35.6H232.6
								c-19.7,0-35.6-15.9-35.6-35.6V94.1C197,74.5,212.9,58.5,232.6,58.5z"/>
						</g>
					</g>
				</g>
			</g>
		</g>
		<g>
			<g>
				<g>
					<g>
						<defs>
							<polygon id="SVGID_3_" points="457,103.8 76.5,103.8 76.5,173.3 457,173.3 457,568.9 526.5,568.9 526.5,173.3 526.5,103.8 
															"/>
						</defs>
						<clipPath id="SVGID_4_">
							<use xlink:href="#SVGID_3_"  style="overflow:visible;"/>
						</clipPath>
						<g class="st4">
							<path class="st1" d="M162.8,128.3h303.6c19.7,0,35.6,15.9,35.6,35.6v303.6c0,19.7-15.9,35.6-35.6,35.6H162.8
								c-19.7,0-35.6-15.9-35.6-35.6V163.9C127.2,144.2,143.1,128.3,162.8,128.3z"/>
						</g>
					</g>
				</g>
			</g>
		</g>
	</g>
</g>
</svg>
