<?xml version="1.0" encoding="utf-8"?>
<!-- Generator: Adobe Illustrator 23.0.0, SVG Export Plug-In . SVG Version: 6.00 Build 0)  -->
<svg version="1.1" id="Layer_1" xmlns="http://www.w3.org/2000/svg" xmlns:xlink="http://www.w3.org/1999/xlink" x="0px" y="0px"
	 viewBox="0 0 631 633" style="enable-background:new 0 0 631 633;" xml:space="preserve">
<style type="text/css">
	.st0{opacity:0.6;}
	.st1{fill:#A091F5;}
</style>
<title>Asset 1</title>
<g class="st0">
	<g id="Layer_1-2">
		<path class="st1" d="M508.4,54.8L72.1,306.4c-36.1,20.9-32.6,74.3,6,90.1L198,446.1v88.5c0,48.7,62.1,68.7,90.8,30l45.9-62
			l117.4,48.5c25.8,10.6,55.2-1.7,65.8-27.5c1.5-3.7,2.6-7.5,3.2-11.4l62.3-406.1C589.8,64,544.7,33.9,508.4,54.8L508.4,54.8z
			 M248.3,534.6v-67.8l38.4,15.8L248.3,534.6z M471.3,504.5L310,437.9L457,225.7c11.2-16.3-10-35.1-24.9-22.2L210.3,396.8L97.3,350
			L533.6,98.3L471.3,504.5z"/>
	</g>
</g>
</svg>
