<?xml version="1.0" encoding="utf-8"?>
<!-- Generator: Adobe Illustrator 23.0.0, SVG Export Plug-In . SVG Version: 6.00 Build 0)  -->
<svg version="1.1" id="Layer_1" xmlns="http://www.w3.org/2000/svg" xmlns:xlink="http://www.w3.org/1999/xlink" x="0px" y="0px"
	 viewBox="0 0 452.5 452.5" style="enable-background:new 0 0 452.5 452.5;" xml:space="preserve">
<style type="text/css">
	.st0{fill:none;stroke:#5552FF;stroke-width:21;stroke-miterlimit:10;}
	.st1{fill:#5552FF;stroke:#5552FF;stroke-miterlimit:10;}
	.st2{fill:#5552FF;}
</style>
<title>message-write</title>
<circle class="st0" cx="226.3" cy="226.3" r="215.8"/>
<path class="st1" d="M207.3,129.9h-28.9v-28.9c0-3.5-2.8-6.3-6.3-6.3h-6.6c-3.5,0-6.3,2.8-6.3,6.3v28.9h-28.9
	c-3.5,0-6.3,2.8-6.3,6.3v6.6c0,3.5,2.8,6.3,6.3,6.3h28.9v28.9c0,3.5,2.8,6.3,6.3,6.3h6.6c3.5,0,6.3-2.8,6.3-6.3v-28.9h29
	c3.5,0,6.3-2.8,6.3-6.3v-6.5c0-3.5-2.8-6.4-6.3-6.4C207.4,129.9,207.4,129.9,207.3,129.9z"/>
<g>
	<g id="Layer_1-2_1_">
		<path class="st2" d="M308.3,146.6L124.1,252.8c-15.3,8.8-13.8,31.3,2.5,38l50.6,21v37.3c0,20.5,26.2,29,38.4,12.7l19.4-26.1
			l49.5,20.4c10.9,4.5,23.3-0.7,27.8-11.6c0.6-1.5,1.1-3.1,1.3-4.8l26.3-171.4C342.6,150.5,323.6,137.8,308.3,146.6L308.3,146.6z
			 M198.5,349.2v-28.6l16.2,6.7L198.5,349.2z M292.6,336.4l-68.1-28.1l62-89.6c4.7-6.8-4.2-14.9-10.5-9.4L182.5,291l-47.8-19.8
			L318.9,165L292.6,336.4z"/>
	</g>
</g>
</svg>
