<?xml version="1.0" encoding="utf-8"?>
<!-- Generator: Adobe Illustrator 23.0.0, SVG Export Plug-In . SVG Version: 6.00 Build 0)  -->
<svg version="1.1" id="Layer_1" xmlns="http://www.w3.org/2000/svg" xmlns:xlink="http://www.w3.org/1999/xlink" x="0px" y="0px"
	viewBox="0 0 512 512" style="enable-background:new 0 0 512 512;" xml:space="preserve">
<style type="text/css">
	.st0{fill:#FFFFFF;}
	.st1{fill:url(#SVGID_1_);}
</style>
<g>
	<path class="st0" d="M484.4,78.1c-1,2.3-1.9,4.6-2.9,6.8c3.8-9,6.8-18.2,3.6-28.2c-2.5-7.8-6.7-14.2-13.3-19.2
		c-14.5-11.2-35.4-10.2-48.6,2.9c-14.1,14-27.7,29.1-43,41.8c-3.1,2.2-6.3,4.1-9.7,5.9c-9.3,3.2-18.9,5.2-28.4,7.8
		c-13.7,3.8-27.1,9.5-39,17.2c-9.4,6.1-18.1,13.2-27.2,19.6c-8.8,6.1-18.1,11-27.8,15.3c-12.2,5-24.5,10-36,16.6
		c-11.3,6.5-22,14.1-32.8,21.4c-20.4,13.9-40.8,27.7-61.2,41.6c-6.1,2.6-11.7,6.3-15.5,11.2c-3,3.8-5.7,7.6-7.7,11.8
		c-4.8-1.8-9.6-3.6-14.4-5.4c-8.5-3.2-21-0.7-28.5,3.7c-7.7,4.5-15,13.3-17,22.1c-2.2,9.5-1.7,20.1,3.7,28.5
		c5.5,8.5,12.6,13.4,22.1,17c9.4,3.5,18.7,7.1,28.1,10.6c8.7,3.3,17.4,7.1,26.4,9.5c12.2,3.1,26.6,4.4,38.7-0.1
		c8.8-3.3,16.3-7.2,22.8-14.2c1.3-1.4,2.5-2.9,3.7-4.4c0,0,0,0,0.1,0c2.4,8.9,8.3,16.6,16.1,21.5c-6.3,5.8-11.8,12.8-16.1,20.7
		c-4,7.3-7.4,14.9-10.7,22.6c-4.8,11.2-9.6,22.4-11.5,34.5c-1.6,9.7-1.9,19.8,3.7,28.5c4.4,6.9,10.1,11.9,17.7,15.1
		c16.5,7,37.2,1,46.2-15.1c6.7-11.9,13.3-23.8,20-35.7c1.9-3.3,3.7-6.7,5.5-10.1c2.9,1,5.9,2.1,8.8,3.1c8.8,3.1,17.7,6,26.7,8.8
		c18.2,5.7,36.5,11,54.9,15.8c9.1,2.3,18.2,4.6,27.3,6.7c6.5,1.5,13.4,3.4,20,3.2c13.4-0.4,25.4-6.5,33.5-16.9
		c7.5-9.7,10.1-20.9,12.6-32.7c1.9-9.3,3.5-18.7,5-28.1c3.3-21.5,5.8-43,8.6-64.5c1.8-12.8,3.8-25.5,6.3-38.1
		c2.8-13.8,6.6-27.4,9.3-41.3c3.2-16.5,4.7-33.1,4.6-49.9c-0.1-12.6,0-25.1,1.3-37.7C473,111.1,477.7,94.3,484.4,78.1z"/>
</g>
<title>Asset 1</title>
<g>
	<g id="Layer_1-2">
		
			<linearGradient id="SVGID_1_" gradientUnits="userSpaceOnUse" x1="11.034" y1="822" x2="500.966" y2="822" gradientTransform="matrix(1 0 0 1 0 -566)">
			<stop  offset="0" style="stop-color:#A587F8"/>
			<stop  offset="3.000000e-02" style="stop-color:#9E7EF9"/>
			<stop  offset="0.12" style="stop-color:#906CFB"/>
			<stop  offset="0.17" style="stop-color:#8B65FC"/>
			<stop  offset="0.33" style="stop-color:#8967FC"/>
			<stop  offset="0.7" style="stop-color:#6959FE"/>
			<stop  offset="0.93" style="stop-color:#5A52FF"/>
			<stop  offset="1" style="stop-color:#6D50FF"/>
		</linearGradient>
		<path class="st1" d="M432,17.3L34,246.8C1,265.8,4.2,314.5,39.4,329l109.4,45.3V455c0,44.4,56.6,62.7,82.9,27.4l41.9-56.5
			L380.6,470c23.5,9.7,50.4-1.5,60.1-25.1c1.3-3.3,2.4-6.8,2.9-10.4L500.4,64C506.2,25.7,465.1-1.8,432,17.3L432,17.3z M194.7,455
			v-61.8l35,14.4L194.7,455z M398.1,427.5L251,366.8l134.1-193.6c10.2-14.8-9.1-32.1-22.7-20.3L160.1,329.3L56.9,286.6L455,57
			L398.1,427.5z"/>
	</g>
</g>
</svg>
