<?xml version="1.0" encoding="utf-8"?>
<!-- Generator: Adobe Illustrator 23.0.0, SVG Export Plug-In . SVG Version: 6.00 Build 0)  -->
<svg version="1.1" xmlns="http://www.w3.org/2000/svg" xmlns:xlink="http://www.w3.org/1999/xlink" x="0px" y="0px"
	 viewBox="0 0 629.3 510" style="enable-background:new 0 0 629.3 510;" xml:space="preserve">
<style type="text/css">
	.st0{fill:#FFFFFF;}
	.st1{fill:url(#SVGID_1_);}
	.st2{fill:url(#SVGID_2_);}
	.st3{fill:url(#SVGID_3_);}
</style>
<g id="Layer_2">
	<path class="st0" d="M593.6,323c-4.3-25.5-23.9-48.7-49.7-54.2c-14.9-3.2-27.9-2-42.8,0.1c-20.8,2.9-36.9,17.4-39.8,38.6
		c-1.6,11.7-1.4,23.7-1.8,35.5c-0.3,10.5-0.7,21-1,31.6c-0.1,2.7-0.1,5.4-0.2,8c-3.6,0.9-7.2,1.8-10.7,2.7
		c0.3-32.3,5.4-64.6,7.2-96.9c1.3-22.3,0.4-44.6-0.4-66.9c-0.8-22.4-1.5-44.8-2.3-67.2l-1.2-33.6c-0.4-13,0.4-27.3-3.5-39.7
		c-5.6-17.8-20.9-31.3-39-35.5c-11.8-2.8-24.3-2.9-36.4-3.5c-44.9-2.4-89.9-4.9-134.8-7.3c-12.9-0.7-25.8-1.4-38.7-2.1
		c-14.3-0.8-27.9-1.4-42.1,1.2c-4.6,0.8-9.2,2.3-13.7,4.2c-5.9-3.9-12.9-6.6-20-6c-23.8,1.9-49,5.9-66.2,24.3
		C39.1,75,35.2,99.6,36.2,124.4c1.7,42.8-0.1,85.5-2.2,128.3c-2.1,42.9-4.1,85.9-6.2,128.8c-0.6,12.8-1.9,25.4,1.2,38
		c3.8,15.5,15.4,28.9,29.4,36.4c18.8,10,40.6,15.4,61.5,18.8c43.2,7,87.4,8.5,131.1,11c42.6,2.5,85.2,4.3,127.8,4.2
		c41.7-0.1,83.6-1.7,125-7c23.6-3,45.8-8.2,64-24.7c20.3-18.3,22.5-46.4,25.3-71.8C595.6,365.2,597.2,344.2,593.6,323z"/>
</g>
<g id="Layer_1">
	<title>Asset 2</title>
	<g>
		<g id="Layer_1-2">
			
				<linearGradient id="SVGID_1_" gradientUnits="userSpaceOnUse" x1="0" y1="257" x2="629.31" y2="257" gradientTransform="matrix(1 0 0 -1 0 512)">
				<stop  offset="0" style="stop-color:#A587F8"/>
				<stop  offset="3.000000e-02" style="stop-color:#9E7EF9"/>
				<stop  offset="0.12" style="stop-color:#906CFB"/>
				<stop  offset="0.17" style="stop-color:#8B65FC"/>
				<stop  offset="0.33" style="stop-color:#8967FC"/>
				<stop  offset="0.7" style="stop-color:#6959FE"/>
				<stop  offset="0.93" style="stop-color:#5A52FF"/>
				<stop  offset="1" style="stop-color:#6D50FF"/>
			</linearGradient>
			<path class="st1" d="M532.6,241.5H479V96.7C478.9,43.3,435.6,0,382.2,0H96.7C43.3,0.1,0.1,43.3,0,96.7v310
				c0.1,57,46.3,103.2,103.4,103.3h422.6c57-0.1,103.3-46.3,103.4-103.3v-68.5C629.3,284.8,586,241.5,532.6,241.5z M103.4,453.7
				c-26,0-47-21-47-47l0,0v-310c0-22.3,18.1-40.3,40.3-40.3h285.5c22.3,0,40.3,18.1,40.3,40.3v310c0,3.9,0.2,7.8,0.7,11.6
				c0.1,1.2,0.4,2.4,0.5,3.6c0.4,2.6,0.8,5.1,1.4,7.7c0.3,1.4,0.7,2.7,1,4c0.6,2.3,1.3,4.6,2.1,6.9c0.5,1.3,0.9,2.6,1.4,3.9
				c0.9,2.3,1.9,4.5,3,6.7c0.4,0.8,0.7,1.7,1.1,2.5L103.4,453.7z M572.9,406.7c0,26-21,47-47,47s-47-21-47-47V297.9h53.7
				c22.3,0,40.3,18.1,40.3,40.3V406.7L572.9,406.7z"/>
			
				<linearGradient id="SVGID_2_" gradientUnits="userSpaceOnUse" x1="132.94" y1="325.505" x2="348.26" y2="325.505" gradientTransform="matrix(1 0 0 -1 0 512)">
				<stop  offset="0" style="stop-color:#A587F8"/>
				<stop  offset="3.000000e-02" style="stop-color:#9E7EF9"/>
				<stop  offset="0.12" style="stop-color:#906CFB"/>
				<stop  offset="0.17" style="stop-color:#8B65FC"/>
				<stop  offset="0.33" style="stop-color:#8967FC"/>
				<stop  offset="0.7" style="stop-color:#6959FE"/>
				<stop  offset="0.93" style="stop-color:#5A52FF"/>
				<stop  offset="1" style="stop-color:#6D50FF"/>
			</linearGradient>
			<path class="st2" d="M320.1,158.3h-159c-15.6,0.3-27.9,13.1-27.7,28.7c0.3,15.2,12.5,27.4,27.7,27.7h159
				c15.6-0.3,27.9-13.1,27.7-28.7C347.4,170.8,335.2,158.6,320.1,158.3z"/>
			
				<linearGradient id="SVGID_3_" gradientUnits="userSpaceOnUse" x1="132.89" y1="188.46" x2="348.27" y2="188.46" gradientTransform="matrix(1 0 0 -1 0 512)">
				<stop  offset="0" style="stop-color:#A587F8"/>
				<stop  offset="3.000000e-02" style="stop-color:#9E7EF9"/>
				<stop  offset="0.12" style="stop-color:#906CFB"/>
				<stop  offset="0.17" style="stop-color:#8B65FC"/>
				<stop  offset="0.33" style="stop-color:#8967FC"/>
				<stop  offset="0.7" style="stop-color:#6959FE"/>
				<stop  offset="0.93" style="stop-color:#5A52FF"/>
				<stop  offset="1" style="stop-color:#6D50FF"/>
			</linearGradient>
			<path class="st3" d="M320.1,295.4h-159c-15.6,0-28.2,12.6-28.2,28.2s12.6,28.2,28.2,28.2h159c15.6,0,28.2-12.6,28.2-28.2
				S335.6,295.4,320.1,295.4z"/>
		</g>
	</g>
</g>
</svg>
