<?xml version="1.0" encoding="utf-8"?>
<!-- Generator: Adobe Illustrator 23.0.0, SVG Export Plug-In . SVG Version: 6.00 Build 0)  -->
<svg version="1.1" id="Layer_1" xmlns="http://www.w3.org/2000/svg" xmlns:xlink="http://www.w3.org/1999/xlink" x="0px" y="0px"
	 viewBox="0 0 448 512" style="enable-background:new 0 0 448 512;" xml:space="preserve">
<style type="text/css">
	.st0{fill:none;stroke:#A091F5;stroke-width:25;stroke-miterlimit:10;}
	.st1{fill:none;stroke:#993A3A;stroke-miterlimit:10;}
	.st2{fill:#A091F5;}
</style>
<title>Asset 1</title>
<path class="st0" d="M57.2,62h329.6c20,0,36.2,16.8,36.2,37.5v314c0,20.7-16.2,37.5-36.2,37.5H57.2c-20,0-36.2-16.8-36.2-37.5v-314
	C21,78.8,37.2,62,57.2,62z"/>
<rect class="st1" width="448" height="512"/>
<g>
	<g id="Layer_1-2">
		<path class="st2" d="M264.6,278.2c-13,0-19.2,7.2-40.6,7.2s-27.5-7.2-40.6-7.2c-33.6,0-60.8,27.2-60.8,60.8v11.6
			c0,12,9.7,21.7,21.7,21.7l0,0h159.3c12,0,21.7-9.7,21.7-21.7l0,0v-11.6C325.4,305.4,298.2,278.3,264.6,278.2z M303.7,350.6H144.4
			v-11.6c0.1-21.6,17.5-39.1,39.1-39.1c6.6,0,17.3,7.2,40.6,7.2c23.4,0,33.9-7.2,40.6-7.2c21.6,0.1,39.1,17.5,39.1,39.1V350.6z
			 M224.1,271c36,0,65.2-29.2,65.2-65.2s-29.2-65.2-65.2-65.2s-65.2,29.2-65.2,65.2S188.1,271,224.1,271z M224.1,162.4
			c24,0,43.5,19.4,43.5,43.5s-19.4,43.5-43.5,43.5s-43.5-19.4-43.5-43.5C180.6,181.8,200.1,162.4,224.1,162.4z"/>
	</g>
</g>
</svg>
