<svg xmlns="http://www.w3.org/2000/svg" xmlns:xlink="http://www.w3.org/1999/xlink" viewBox="0 0 448 512"><defs><style>.cls-1{fill:url(#linear-gradient);}</style><linearGradient id="linear-gradient" y1="258" x2="448" y2="258" gradientTransform="matrix(1, 0, 0, -1, 0, 514)" gradientUnits="userSpaceOnUse"><stop offset="0" stop-color="#a587f8"/><stop offset="0.03" stop-color="#9e7ef9"/><stop offset="0.12" stop-color="#906cfb"/><stop offset="0.17" stop-color="#8b65fc"/><stop offset="0.33" stop-color="#8967fc"/><stop offset="0.7" stop-color="#6959fe"/><stop offset="0.93" stop-color="#5a52ff"/><stop offset="1" stop-color="#6d50ff"/></linearGradient></defs><title>Asset 1</title><g id="Layer_2" data-name="Layer 2"><g id="Layer_1-2" data-name="Layer 1"><path class="cls-1" d="M313.6,304c-28.7,0-42.5,16-89.6,16s-60.8-16-89.6-16A134.43,134.43,0,0,0,0,438.4V464a48,48,0,0,0,48,48H400a48,48,0,0,0,48-48V438.4A134.43,134.43,0,0,0,313.6,304ZM400,464H48V438.4A86.55,86.55,0,0,1,134.4,352c14.6,0,38.3,16,89.6,16,51.7,0,74.9-16,89.6-16A86.55,86.55,0,0,1,400,438.4ZM224,288A144,144,0,1,0,80,144,144,144,0,0,0,224,288Zm0-240a96,96,0,1,1-96,96A96.15,96.15,0,0,1,224,48Z"/></g></g></svg>